<svg xmlns="http://www.w3.org/2000/svg" width="26" height="26" viewBox="0 0 26 26">
    <path fill="#2D354C" fill-rule="evenodd" d="M18.595 2c3.348 0 6.072 2.724 6.072 6.071v9.858c0 3.347-2.724 6.07-6.072 6.07H8.738c-3.348 0-6.071-2.723-6.071-6.07V8.07C2.667 4.724 5.39 2 8.737 2zm0 1.952H8.738c-2.271 0-4.12 1.848-4.12 4.12v9.857c0 2.271 1.849 4.12 4.12 4.119h9.858c2.271 0 4.119-1.848 4.119-4.12V8.072c0-2.271-1.848-4.12-4.12-4.12zm-4.928 3.38c3.126 0 5.669 2.542 5.669 5.668 0 3.126-2.543 5.669-5.67 5.669-3.125 0-5.668-2.543-5.668-5.669 0-3.126 2.543-5.669 5.669-5.669zm0 1.951c-2.05 0-3.717 1.668-3.717 3.717 0 2.05 1.667 3.717 3.717 3.717S17.384 15.05 17.384 13s-1.668-3.717-3.717-3.717zm5.906-3.607c.378 0 .747.153 1.013.42.267.265.419.634.419 1.012 0 .376-.152.745-.42 1.012-.266.266-.634.42-1.012.42-.376 0-.745-.154-1.01-.42-.267-.267-.421-.636-.421-1.012 0-.378.153-.747.42-1.013.266-.266.635-.419 1.011-.419z"/>
</svg>
