<svg xmlns="http://www.w3.org/2000/svg" width="26" height="26" viewBox="0 0 26 26">
    <path fill="#2D354C" fill-rule="evenodd" d="M22.01 2H3.99C2.891 2 2 2.891 2 3.99v18.02C2 23.109 2.891 24 3.99 24h18.02c1.099 0 1.99-.891 1.99-1.99V3.99C24 2.891 23.109 2 22.01 2zM8.808 20.996c0 .32-.26.58-.58.58H5.764c-.32 0-.579-.26-.579-.58V10.662c0-.32.26-.58.58-.58h2.465c.32 0 .579.26.579.58v10.334zM6.996 9.11c-1.293 0-2.342-1.049-2.342-2.342 0-1.294 1.049-2.342 2.342-2.342 1.293 0 2.342 1.048 2.342 2.342 0 1.293-1.049 2.342-2.342 2.342zm14.695 11.934c0 .294-.238.532-.532.532h-2.646c-.294 0-.532-.238-.532-.532v-4.848c0-.723.212-3.168-1.89-3.168-1.63 0-1.961 1.674-2.028 2.425v5.59c0 .295-.238.533-.532.533h-2.559c-.294 0-.532-.238-.532-.532V10.615c0-.294.238-.532.532-.532h2.56c.293 0 .531.238.531.532v.902c.605-.907 1.503-1.608 3.416-1.608 4.236 0 4.212 3.958 4.212 6.132v5.002z"/>
</svg>
