<svg xmlns="http://www.w3.org/2000/svg" width="26" height="26" viewBox="0 0 26 26">
    <path fill="#2D354C" fill-rule="evenodd" d="M4.609 7.763c.027-.27-.076-.537-.278-.719L2.277 4.57V4.2h6.378l4.93 10.812L17.92 4.2H24v.37l-1.756 1.684c-.152.115-.227.305-.195.492V19.12c-.032.188.043.378.195.493l1.715 1.684v.37h-8.627v-.37l1.776-1.725c.175-.175.175-.226.175-.493v-10l-4.94 12.547h-.668L5.923 9.077v8.41c-.048.353.07.71.319.965l2.31 2.803v.37H2v-.37l2.31-2.803c.248-.256.359-.615.299-.965V7.763z"/>
</svg>
